<svg xmlns="http://www.w3.org/2000/svg" viewBox="0 0 47.5 47.5" id="k">
  <defs>
    <clipPath id="a">
      <path d="M0 38h38V0H0v38Z"></path>
    </clipPath>
  </defs>
  <g clip-path="url(#a)" transform="matrix(1.25 0 0 -1.25 0 47.5)">
    <path fill="#3b88c3" d="M37 5a4 4 0 0 0-4-4H5a4 4 0 0 0-4 4v28a4 4 0 0 0 4 4h28a4 4 0 0 0 4-4V5Z"></path>
    <path fill="#fff" d="M10.925 27.968c0 1.271.93 2.294 2.325 2.294 1.333 0 2.325-.868 2.325-2.294v-6.697l7.628 8.123c.342.372.93.868 1.799.868 1.177 0 2.295-.898 2.295-2.232 0-.806-.497-1.458-1.52-2.48l-5.861-5.768 7.162-7.472c.744-.744 1.303-1.426 1.303-2.357 0-1.457-1.147-2.138-2.418-2.138-.899 0-1.489.526-2.357 1.457l-8.031 8.681v-7.906c0-1.21-.929-2.232-2.325-2.232-1.333 0-2.325.867-2.325 2.232v17.921Z"></path>
  </g>
</svg>