<?xml version="1.0" encoding="UTF-8"?>
<svg version="1.1" xmlns="http://www.w3.org/2000/svg" width="512" height="512">
<path d="M0 0 C1.44802002 -0.03903442 1.44802002 -0.03903442 2.92529297 -0.07885742 C8.65269407 -0.09355866 12.09075753 0.43544327 16.5625 4.375 C19.96896377 7.9026685 19.94828761 10.73450571 19.9609375 15.54296875 C19.96512192 16.24608688 19.96930634 16.94920502 19.97361755 17.67362976 C19.97992999 19.97036631 19.96094454 22.26588558 19.9375 24.5625 C19.93101944 25.74456024 19.93101944 25.74456024 19.92440796 26.95050049 C19.83453145 40.93471861 18.77115252 54.55637693 16.5625 68.375 C16.39089355 69.49471191 16.21928711 70.61442383 16.04248047 71.76806641 C9.0297602 117.10947049 -3.4162045 161.5704014 -22.4375 203.375 C-22.82373535 204.23109863 -23.2099707 205.08719727 -23.60791016 205.96923828 C-31.53945215 223.44590244 -40.6629174 240.47073046 -51.4375 256.375 C-51.84371582 256.97666992 -52.24993164 257.57833984 -52.66845703 258.19824219 C-64.09694216 275.02861578 -76.89461525 291.12041032 -91.4375 305.375 C-94.00896919 307.93799648 -96.57061204 310.50985586 -99.12109375 313.09375 C-100.02988281 314.0115625 -100.93867188 314.929375 -101.875 315.875 C-102.35291992 316.36637451 -102.83083984 316.85774902 -103.32324219 317.36401367 C-105.79876213 319.87692691 -108.15446764 321.90461681 -111.1875 323.6875 C-114.03459353 327.08819505 -113.64012991 328.22388569 -113.3125 332.5625 C-113.09079573 334.47794504 -112.86882475 336.39336529 -112.64111328 338.30810547 C-108.49970961 380.34782185 -124.81784505 422.8076157 -150.375 455.5625 C-154.34727726 460.3951693 -158.58390496 464.98040784 -162.84375 469.55859375 C-164.95623337 471.85241982 -166.99098406 474.1791627 -169 476.5625 C-178.82960592 487.79633534 -201.98499486 511.01413298 -217.79296875 512.61328125 C-224.29058624 512.78356364 -228.32722841 512.54665028 -233.4375 508.375 C-237.10882747 502.9748163 -238.10974596 497.70236237 -238.44238281 491.296875 C-238.50148834 490.42763901 -238.56059387 489.55840302 -238.62149048 488.66282654 C-238.81090649 485.81767483 -238.97593712 482.97168072 -239.140625 480.125 C-239.26792105 478.14093454 -239.39674867 476.15696681 -239.52703857 474.1730957 C-239.86448069 468.97249198 -240.18120259 463.77082883 -240.49353027 458.56866455 C-240.81644171 453.25200605 -241.15906557 447.93662151 -241.5 442.62109375 C-242.16506018 432.20687779 -242.80822311 421.79143511 -243.4375 411.375 C-244.16864014 412.12185059 -244.89978027 412.86870117 -245.65307617 413.63818359 C-248.37567231 416.41520619 -251.10828848 419.18218507 -253.84399414 421.94628906 C-255.02512505 423.14247757 -256.20354575 424.34134864 -257.37915039 425.54296875 C-259.07247518 427.27280921 -260.77541211 428.9926692 -262.48046875 430.7109375 C-263.00150681 431.24745941 -263.52254486 431.78398132 -264.05937195 432.33676147 C-268.15871868 436.43796545 -271.86780383 438.61634684 -277.6875 438.875 C-286.71377646 438.62094917 -292.90380673 431.22528738 -298.78515625 425.1328125 C-299.33042969 424.55273438 -299.87570312 423.97265625 -300.4375 423.375 C-303.48264351 424.72471691 -305.44667545 426.20802238 -307.70703125 428.640625 C-311.23758675 432.26776675 -314.97940073 435.23361891 -319.125 438.125 C-319.85485107 438.63450195 -320.58470215 439.14400391 -321.33666992 439.66894531 C-353.89449556 461.93576111 -403.27772021 481.10267028 -443.4375 476.375 C-448.71839599 474.19222966 -451.14377625 471.89210686 -454.4375 467.375 C-463.66746077 439.6851177 -446.18690634 394.1506362 -434.26171875 369.50976562 C-432.71211372 366.43149618 -431.08214428 363.40368112 -429.4375 360.375 C-428.70466797 358.92867188 -428.70466797 358.92867188 -427.95703125 357.453125 C-422.25278505 346.39615477 -414.83325867 336.44270461 -406.25 327.4609375 C-404.54428739 325.49789756 -403.46841168 323.7482446 -402.4375 321.375 C-403.18515625 320.66214844 -403.9328125 319.94929688 -404.703125 319.21484375 C-417.50042846 306.85241062 -417.50042846 306.85241062 -417.875 298.8125 C-417.86377224 292.69337317 -414.64848617 288.24411033 -410.43843079 284.03604126 C-409.67420052 283.29503677 -409.67420052 283.29503677 -408.89453125 282.5390625 C-408.36607101 282.01484711 -407.83761078 281.49063171 -407.2931366 280.95053101 C-405.61905613 279.29311845 -403.93480741 277.64649991 -402.25 276 C-401.10673111 274.8717933 -399.96414568 273.74289358 -398.82226562 272.61328125 C-396.03518333 269.85911023 -393.23893798 267.11456456 -390.4375 264.375 C-391.53473389 264.30871399 -392.63196777 264.24242798 -393.76245117 264.1741333 C-404.12130787 263.54604939 -414.47887843 262.89960567 -424.83547974 262.23534012 C-430.15949528 261.89444934 -435.48374999 261.55995681 -440.80908203 261.24023438 C-445.95186035 260.93123319 -451.09330819 260.60523241 -456.23428345 260.26760101 C-458.19221354 260.14198178 -460.15054168 260.02241054 -462.10922241 259.90909576 C-464.86058277 259.74886786 -467.6097198 259.5668514 -470.359375 259.37988281 C-471.16282852 259.33815948 -471.96628204 259.29643616 -472.79408264 259.25344849 C-478.28963686 258.84855546 -482.84161997 257.49951975 -487.4375 254.375 C-491.31156394 249.62927168 -492.27412304 245.41996126 -491.9921875 239.30859375 C-489.20234617 224.55386952 -473.61520674 209.36305397 -463.6328125 198.72265625 C-461.66222108 196.61531561 -459.79454719 194.45686306 -457.9375 192.25 C-453.82030863 187.52818612 -449.17251583 183.46371338 -444.4375 179.375 C-443.5196875 178.56933594 -442.601875 177.76367188 -441.65625 176.93359375 C-409.85179511 149.6176708 -370.0894585 133.52069002 -328.0625 133.25 C-327.33635498 133.2401709 -326.61020996 133.2303418 -325.86206055 133.22021484 C-322.31024455 133.211489 -319.23552059 133.41607695 -315.73046875 134.12890625 C-311.86294154 134.88852158 -309.30539368 135.22082641 -305.4375 134.375 C-299.81398846 130.40614909 -295.63255569 124.75612489 -291.4375 119.375 C-288.69158744 115.95089774 -285.94742182 112.75358641 -282.5625 109.9375 C-280.00657307 107.76496211 -277.61577666 105.56205283 -275.3125 103.125 C-270.41304689 98.14760105 -264.77700742 94.01591503 -259.24853516 89.77148438 C-257.54546435 88.45825102 -255.85487264 87.13077768 -254.16796875 85.796875 C-192.20147648 37.008043 -110.92278536 11.60604334 -33.4375 2.375 C-32.59638672 2.27203613 -31.75527344 2.16907227 -30.88867188 2.06298828 C-20.60764679 0.83693536 -10.35396776 0.15378808 0 0 Z " fill="#E0F0F9" transform="translate(492.4375,-0.375)"/>
<path d="M0 0 C-1.31619175 2.82895759 -2.78801211 5.1458215 -4.765625 7.5546875 C-26.11445538 34.01380867 -43.00472463 64.4351782 -56.3125 95.6875 C-56.60858154 96.36369385 -56.90466309 97.0398877 -57.2097168 97.73657227 C-58.8143252 101.65274261 -59.36840507 103.990229 -58 108 C-56.20898239 110.16512591 -54.44843493 112.07463222 -52.45091248 114.03010559 C-51.86611006 114.6183257 -51.28130765 115.20654581 -50.67878395 115.81259078 C-48.71508126 117.78288658 -46.73741482 119.73853768 -44.75952148 121.69458008 C-43.3496659 123.1033075 -41.94069027 124.51291606 -40.53253174 125.92333984 C-36.70484239 129.75217847 -32.86493104 133.56854527 -29.02274585 137.3828299 C-25.01039687 141.37020123 -21.00934639 145.36887656 -17.00709534 149.36637878 C-9.42547196 156.93556174 -1.83370829 164.49448917 5.76173013 172.0498063 C14.40791167 180.65130347 23.04275976 189.26413953 31.67666352 197.87795794 C49.43850615 215.59797208 67.21456985 233.30366281 85 251 C88.20542699 249.72544369 91.40980722 248.44827557 94.61401367 247.1706543 C95.51617363 246.81197014 96.41833359 246.45328598 97.34783173 246.0837326 C103.76766482 243.52189875 110.09128867 240.82908006 116.3125 237.8125 C117.25198486 237.35963623 118.19146973 236.90677246 119.15942383 236.44018555 C134.31842832 229.01980819 149.22995147 220.78552385 163 211 C164.15734175 210.19110523 165.31490701 209.38253019 166.47265625 208.57421875 C172.80491559 204.12509614 178.96303579 199.54955381 184.9140625 194.59375 C186.8764822 193.09437315 188.75594424 192.01540984 191 191 C200.41827751 209.83655503 191.14326685 245.98876154 185.13183594 264.70263672 C176.08841405 291.21434383 161.60616311 313.75037118 142.59375 334.18359375 C140.48126663 336.47741982 138.44651594 338.8041627 136.4375 341.1875 C126.60789408 352.42133534 103.45250514 375.63913298 87.64453125 377.23828125 C81.14691376 377.40856364 77.11027159 377.17165028 72 373 C68.32867253 367.5998163 67.32775404 362.32736237 66.99511719 355.921875 C66.93601166 355.05263901 66.87690613 354.18340302 66.81600952 353.28782654 C66.62659351 350.44267483 66.46156288 347.59668072 66.296875 344.75 C66.16957895 342.76593454 66.04075133 340.78196681 65.91046143 338.7980957 C65.57301931 333.59749198 65.25629741 328.39582883 64.94396973 323.19366455 C64.62105829 317.87700605 64.27843443 312.56162151 63.9375 307.24609375 C63.27243982 296.83187779 62.62927689 286.41643511 62 276 C61.26885986 276.74685059 60.53771973 277.49370117 59.78442383 278.26318359 C57.06182769 281.04020619 54.32921152 283.80718507 51.59350586 286.57128906 C50.41237495 287.76747757 49.23395425 288.96634864 48.05834961 290.16796875 C46.36502482 291.89780921 44.66208789 293.6176692 42.95703125 295.3359375 C42.43599319 295.87245941 41.91495514 296.40898132 41.37812805 296.96176147 C37.27878132 301.06296545 33.56969617 303.24134684 27.75 303.5 C18.72372354 303.24594917 12.53369327 295.85028738 6.65234375 289.7578125 C6.10707031 289.17773438 5.56179687 288.59765625 5 288 C1.95485649 289.34971691 -0.00917545 290.83302238 -2.26953125 293.265625 C-5.80008675 296.89276675 -9.54190073 299.85861891 -13.6875 302.75 C-14.41735107 303.25950195 -15.14720215 303.76900391 -15.89916992 304.29394531 C-48.45699556 326.56076111 -97.84022021 345.72767028 -138 341 C-143.28089599 338.81722966 -145.70627625 336.51710686 -149 332 C-158.22996077 304.3101177 -140.74940634 258.7756362 -128.82421875 234.13476562 C-127.27461372 231.05649618 -125.64464428 228.02868112 -124 225 C-123.51144531 224.03578125 -123.02289063 223.0715625 -122.51953125 222.078125 C-116.81528505 211.02115477 -109.39575867 201.06770461 -100.8125 192.0859375 C-99.10678739 190.12289756 -98.03091168 188.3732446 -97 186 C-97.74765625 185.28714844 -98.4953125 184.57429687 -99.265625 183.83984375 C-112.06292846 171.47741062 -112.06292846 171.47741062 -112.4375 163.4375 C-112.42627224 157.31837317 -109.21098617 152.86911033 -105.00093079 148.66104126 C-104.23670052 147.92003677 -104.23670052 147.92003677 -103.45703125 147.1640625 C-102.92857101 146.63984711 -102.40011078 146.11563171 -101.8556366 145.57553101 C-100.18155613 143.91811845 -98.49730741 142.27149991 -96.8125 140.625 C-95.66923111 139.4967933 -94.52664568 138.36789358 -93.38476562 137.23828125 C-90.59768333 134.48411023 -87.80143798 131.73956456 -85 129 C-86.09723389 128.93371399 -87.19446777 128.86742798 -88.32495117 128.7991333 C-98.68380787 128.17104939 -109.04137843 127.52460567 -119.39797974 126.86034012 C-124.72199528 126.51944934 -130.04624999 126.18495681 -135.37158203 125.86523438 C-140.51436035 125.55623319 -145.65580819 125.23023241 -150.79678345 124.89260101 C-152.75471354 124.76698178 -154.71304168 124.64741054 -156.67172241 124.53409576 C-159.42308277 124.37386786 -162.1722198 124.1918514 -164.921875 124.00488281 C-165.72532852 123.96315948 -166.52878204 123.92143616 -167.35658264 123.87844849 C-172.85213686 123.47355546 -177.40411997 122.12451975 -182 119 C-185.87406394 114.25427168 -186.83662304 110.04496126 -186.5546875 103.93359375 C-183.76484617 89.17886952 -168.17770674 73.98805397 -158.1953125 63.34765625 C-156.22472108 61.24031561 -154.35704719 59.08186306 -152.5 56.875 C-148.38280863 52.15318612 -143.73501583 48.08871338 -139 44 C-138.0821875 43.19433594 -137.164375 42.38867188 -136.21875 41.55859375 C-107.05609007 16.51163179 -39.70051499 -19.8502575 0 0 Z " fill="#1B3B6A" transform="translate(187,135)"/>
<path d="M0 0 C3.97783572 1.61118688 6.70368684 4.38068451 9.70239258 7.34838867 C10.53960846 8.16589096 10.53960846 8.16589096 11.39373779 8.99990845 C13.23321246 10.80005466 15.06465334 12.60807061 16.89453125 14.41796875 C17.83418511 15.34539603 17.83418511 15.34539603 18.79282188 16.29155922 C22.10443126 19.56151651 25.40949288 22.83793889 28.7097168 26.11938477 C32.12072019 29.50820839 35.55442154 32.87303419 38.99374866 36.23307323 C41.63467767 38.8217683 44.25773154 41.42802535 46.87625694 44.03936195 C48.13468602 45.28804178 49.39987225 46.52994967 50.6718235 47.76485252 C52.44874662 49.49316976 54.19880412 51.24494182 55.94458008 53.00463867 C56.47488327 53.50932175 57.00518646 54.01400482 57.55155945 54.53398132 C58.98323059 56.00773621 58.98323059 56.00773621 61 59 C60.83536462 63.68207818 59.57410889 67.76666697 58.06640625 72.18359375 C57.47194702 73.92745361 57.47194702 73.92745361 56.86547852 75.70654297 C56.43549561 76.93775879 56.0055127 78.16897461 55.5625 79.4375 C55.22978592 80.39465912 55.22978592 80.39465912 54.89035034 81.37115479 C43.60479272 113.75308203 29.2817508 145.538372 10 174 C9.59378418 174.60166992 9.18756836 175.20333984 8.76904297 175.82324219 C-2.65944216 192.65361578 -15.45711525 208.74541032 -30 223 C-32.55644146 225.54384816 -35.09717407 228.09978862 -37.61328125 230.68359375 C-38.50402344 231.59238281 -39.39476562 232.50117188 -40.3125 233.4375 C-41.19550781 234.34371094 -42.07851563 235.24992188 -42.98828125 236.18359375 C-45.76821098 238.89057934 -48.78270612 241.17574514 -51.90942383 243.46655273 C-53.97935321 244.98485548 -56.01400885 246.54075766 -58.04296875 248.11328125 C-88.409312 271.58032744 -122.3988352 292.79961173 -159 305 C-183.09 280.91 -207.18 256.82 -232 232 C-203.33333333 203.33333333 -174.66666667 174.66666667 -146 146 C-145.608125 146.4125 -145.21625 146.825 -144.8125 147.25 C-132.65586836 158.98743745 -116.08512257 164.27436167 -99.48388672 164.3894043 C-91.46482253 164.23325991 -84.41952751 161.87646909 -77 159 C-76.07445312 158.65066406 -75.14890625 158.30132812 -74.1953125 157.94140625 C-60.35782301 151.90684613 -49.69761742 138.66284845 -44 125 C-37.6481732 108.67559822 -38.1844919 92.03950403 -45 76 C-48.27443906 69.41382758 -52.02673673 63.42537812 -57 58 C-51.50280742 51.30470134 -45.39046848 45.26303509 -39.2578125 39.16015625 C-38.12273594 38.02694801 -36.98788237 36.89351638 -35.85324097 35.75987244 C-32.88649256 32.79691665 -29.91675198 29.83697807 -26.9463501 26.87768555 C-23.9077114 23.84933144 -20.87195091 20.81809501 -17.8359375 17.78710938 C-11.8934174 11.85526911 -5.947729 5.92661739 0 0 Z " fill="#CCEAFB" transform="translate(431,82)"/>
<path d="M0 0 C3.35483438 1.45809809 5.55011664 3.30286564 8.12554932 5.88504028 C8.93880676 6.6955484 9.75206421 7.50605652 10.58996582 8.34112549 C11.47325562 9.23160583 12.35654541 10.12208618 13.26660156 11.03955078 C14.21256265 11.9860762 15.15896473 12.93216107 16.10577393 13.87783813 C18.67193618 16.44342674 21.23188665 19.01513359 23.79076862 21.58798075 C26.46710097 24.27681834 29.1491008 26.95999062 31.83050537 29.64376831 C36.90595783 34.72543613 41.97629063 39.81218055 47.04480529 44.90076721 C52.81592905 50.69424818 58.59273507 56.48204897 64.37002611 62.2693789 C76.25301957 74.17327565 88.12885446 86.08428765 100 98 C89.40229425 119.90173687 54.5252795 133.44176393 33 141 C-24.89063745 161.07186986 -24.89063745 161.07186986 -45.22265625 152.66796875 C-49.60034079 150.03889519 -52.35635288 146.93094135 -54 142 C-56.78221579 107.11529433 -44.44612421 68.28622446 -28 38 C-27.51144531 37.03578125 -27.02289063 36.0715625 -26.51953125 35.078125 C-19.73851627 21.93397272 -10.49773643 10.36610337 0 0 Z " fill="#FEF160" transform="translate(91,322)"/>
<path d="M0 0 C-1.31619175 2.82895759 -2.78801211 5.1458215 -4.765625 7.5546875 C-18.42623386 24.48524991 -29.91095069 42.73908768 -40 62 C-40.72316406 63.38058594 -40.72316406 63.38058594 -41.4609375 64.7890625 C-43.0311955 67.81001571 -44.58283518 70.83961275 -46.125 73.875 C-46.64545898 74.8969043 -47.16591797 75.91880859 -47.70214844 76.97167969 C-50.0308685 81.64544608 -52.17499767 86.22426983 -53.765625 91.203125 C-57.2924009 102.18130667 -62.66605764 109.98553295 -70.5625 118.25 C-71.45437012 119.22211426 -72.34624023 120.19422852 -73.26513672 121.19580078 C-76.94813621 124.81970419 -79.98416505 127.7288879 -85.23303223 128.43481445 C-86.39298706 128.39573975 -87.55294189 128.35666504 -88.74804688 128.31640625 C-89.39423257 128.29938282 -90.04041826 128.28235939 -90.70618534 128.2648201 C-92.80586305 128.20117132 -94.90194445 128.10370993 -97 128 C-97.69842955 127.97006706 -98.39685909 127.94013412 -99.11645317 127.90929413 C-104.42386013 127.68065923 -109.72517076 127.37343502 -115.02734375 127.046875 C-116.26599277 126.97161968 -116.26599277 126.97161968 -117.52966499 126.89484406 C-121.88349124 126.62981693 -126.23691587 126.3590521 -130.59008789 126.08349609 C-135.05972421 125.80177914 -139.53032926 125.54081475 -144.00147152 125.28428268 C-147.47076597 125.08138428 -150.93896193 124.86297906 -154.40704536 124.64041901 C-156.05518971 124.53735196 -157.70370699 124.44006661 -159.35255241 124.34889984 C-175.4547481 123.44872185 -175.4547481 123.44872185 -182 119 C-185.87406394 114.25427168 -186.83662304 110.04496126 -186.5546875 103.93359375 C-183.76484617 89.17886952 -168.17770674 73.98805397 -158.1953125 63.34765625 C-156.22472108 61.24031561 -154.35704719 59.08186306 -152.5 56.875 C-148.38280863 52.15318612 -143.73501583 48.08871338 -139 44 C-138.0821875 43.19433594 -137.164375 42.38867188 -136.21875 41.55859375 C-107.05609007 16.51163179 -39.70051499 -19.8502575 0 0 Z " fill="#FE5B5B" transform="translate(187,135)"/>
<path d="M0 0 C4.86554945 4.86554945 3.1319034 15.93391313 3.1875 22.625 C3.05678274 68.69072997 -16.41129117 109.87236236 -47.40625 143.18359375 C-49.51873337 145.47741982 -51.55348406 147.8041627 -53.5625 150.1875 C-63.39210592 161.42133534 -86.54749486 184.63913298 -102.35546875 186.23828125 C-108.85308624 186.40856364 -112.88972841 186.17165028 -118 182 C-123.18534897 174.37097389 -122.99158858 165.81489691 -123.484375 156.90234375 C-123.58937648 155.22326602 -123.6957862 153.54427583 -123.80352783 151.8653717 C-124.02553099 148.35163228 -124.23631699 144.83747397 -124.43798828 141.32250977 C-124.69412625 136.859374 -124.96907568 132.39767599 -125.25149155 127.93613338 C-125.52308485 123.63359566 -125.78543208 119.33050831 -126.046875 115.02734375 C-126.09617912 114.2268202 -126.14548325 113.42629665 -126.19628143 112.60151482 C-126.51248443 107.40267457 -126.78138641 102.20384421 -127 97 C-127.03276976 96.29290264 -127.06553951 95.58580528 -127.09930229 94.85728073 C-127.18586265 92.81409325 -127.24362955 90.7721983 -127.29174805 88.7277832 C-127.32624557 87.56406693 -127.3607431 86.40035065 -127.39628601 85.20137024 C-126.62737618 78.98978322 -122.49592252 75.32890663 -118.0625 71.25 C-117.12680176 70.35313477 -116.19110352 69.45626953 -115.22705078 68.53222656 C-106.04099924 60.04141009 -95.53447422 55.4312325 -83.9140625 51.11035156 C-79.63721394 49.48073467 -75.50484476 47.59346369 -71.375 45.625 C-70.62968018 45.27155518 -69.88436035 44.91811035 -69.11645508 44.55395508 C-54.52291037 37.49658735 -40.21948542 29.39427261 -27 20 C-25.84265825 19.19110523 -24.68509299 18.38253019 -23.52734375 17.57421875 C-17.17747104 13.11331836 -10.99156002 8.51744754 -4.98828125 3.59375 C-3 2 -3 2 0 0 Z " fill="#FE193D" transform="translate(377,326)"/>
<path d="M0 0 C8.79555593 7.19085898 15.82052331 17.51587037 19.58203125 28.23046875 C19.87851562 28.99875 20.175 29.76703125 20.48046875 30.55859375 C25.81592125 46.51600213 22.70677411 63.37216809 16.01953125 78.35546875 C7.65857011 94.16950888 -7.2786185 105.10073927 -24.04296875 110.54296875 C-34.51859637 113.36464816 -46.02125267 113.57500058 -56.41796875 110.23046875 C-57.26359375 109.97394531 -58.10921875 109.71742188 -58.98046875 109.453125 C-75.55877686 103.96627019 -88.66457294 93.72544305 -96.69140625 78.03125 C-103.37057056 63.90736933 -106.22058747 48.44295214 -101.41796875 33.23046875 C-101.09957031 32.15152344 -100.78117187 31.07257813 -100.453125 29.9609375 C-94.79528869 12.37783003 -82.73009677 -0.36631378 -66.41796875 -8.76953125 C-43.3280454 -18.25778954 -19.93340002 -14.58777094 0 0 Z " fill="#1C3C6C" transform="translate(369.41796875,134.76953125)"/>
<path d="M0 0 C0.96583008 -0.02610352 1.93166016 -0.05220703 2.92675781 -0.07910156 C8.65354264 -0.09330188 12.09121359 0.43584505 16.5625 4.375 C19.96896377 7.9026685 19.94828761 10.73450571 19.9609375 15.54296875 C19.96512192 16.24608688 19.96930634 16.94920502 19.97361755 17.67362976 C19.97992999 19.97036631 19.96094454 22.26588558 19.9375 24.5625 C19.93317963 25.35054016 19.92885925 26.13858032 19.92440796 26.95050049 C19.83453145 40.93471861 18.77115252 54.55637693 16.5625 68.375 C16.30509033 70.05456787 16.30509033 70.05456787 16.04248047 71.76806641 C12.40001567 95.31876601 7.27709556 118.50972621 0.5625 141.375 C-3.15633455 139.81875501 -5.52344692 137.54053044 -8.36029053 134.70617676 C-8.84148385 134.22810341 -9.32267718 133.75003007 -9.81845212 133.25746965 C-11.42770182 131.65618985 -13.029717 130.04786506 -14.63183594 128.43945312 C-15.78470631 127.28929299 -16.93800168 126.13955873 -18.09169006 124.99021912 C-21.2220839 121.86894562 -24.34611526 118.74137563 -27.46877956 115.61237144 C-30.73427254 112.34181911 -34.00463755 109.07614451 -37.27423096 105.80969238 C-42.76210899 100.32545314 -48.24575563 94.83700944 -53.72705078 89.34619141 C-60.07174504 82.99060194 -66.423627 76.64226432 -72.77926993 70.29762506 C-78.23096872 64.8549887 -83.67877721 59.4084814 -89.12332559 53.95869207 C-92.37742757 50.70146602 -95.63288009 47.44562071 -98.89183807 44.19325256 C-101.95298605 41.1378626 -105.00923694 38.07765871 -108.06170464 35.01359749 C-109.18552422 33.88712348 -110.31106757 32.76236628 -111.43840981 31.63941765 C-112.97114215 30.11211118 -114.49764225 28.57884281 -116.02264404 27.04382324 C-116.880247 26.18546623 -117.73784996 25.32710922 -118.62144089 24.44274139 C-120.4375 22.375 -120.4375 22.375 -120.4375 20.375 C-91.89696311 12.16289997 -62.91714359 6.06055609 -33.4375 2.375 C-32.50695801 2.25785645 -31.57641602 2.14071289 -30.61767578 2.02001953 C-20.42903295 0.7834178 -10.26225372 0.15907954 0 0 Z " fill="#FE5A5A" transform="translate(492.4375,-0.375)"/>
<path d="M0 0 C4.84529675 4.03884969 9.40762999 8.26710494 13.85327148 12.73974609 C14.49802933 13.38435791 15.14278717 14.02896973 15.80708313 14.69311523 C17.91413559 16.80085819 20.01763474 18.91210893 22.12109375 21.0234375 C23.59060627 22.49481727 25.06034135 23.9659748 26.5302887 25.43692017 C30.38099528 29.29142775 34.22868807 33.14892999 38.07574463 37.00708008 C42.00895449 40.95055623 45.9450298 44.89117004 49.88085938 48.83203125 C57.59003446 56.55190099 65.29602623 64.27493989 73 72 C72.04126607 73.12466898 71.08166157 74.24859587 70.12168884 75.37220764 C69.58740233 75.99817369 69.05311583 76.62413973 68.50263882 77.26907444 C66.86588112 79.15449475 65.16289006 80.93707438 63.37890625 82.68359375 C62.75306641 83.30169922 62.12722656 83.91980469 61.48242188 84.55664062 C60.20641994 85.80668118 58.93037852 87.05668143 57.65429688 88.30664062 C54.53455959 91.38790222 51.52023621 94.49920796 48.66015625 97.82421875 C44.28658796 102.89253215 39.59304543 107.62907838 34.875 112.375 C33.99457031 113.27605469 33.11414063 114.17710937 32.20703125 115.10546875 C30.92505859 116.39517578 30.92505859 116.39517578 29.6171875 117.7109375 C28.85003418 118.48743652 28.08288086 119.26393555 27.29248047 120.06396484 C23.06965544 123.63020579 18.7981774 124.59068958 13.38671875 124.4296875 C3.3251644 122.61827837 -4.77966102 111.77665373 -11.05419922 104.42822266 C-15.35922232 99.50097032 -20.00706794 94.95810595 -24.6875 90.390625 C-26.53834568 88.56700006 -28.38858908 86.74276368 -30.23828125 84.91796875 C-33.13324253 82.06499947 -36.0322579 79.21640075 -38.94287109 76.37939453 C-41.76698897 73.62580385 -44.57116051 70.85236602 -47.375 68.078125 C-48.25502686 67.22704163 -49.13505371 66.37595825 -50.04174805 65.49908447 C-50.84008057 64.7043573 -51.63841309 63.90963013 -52.4609375 63.09082031 C-53.17040527 62.3954718 -53.87987305 61.70012329 -54.61083984 60.98370361 C-56 59 -56 59 -56.0438385 57.08825684 C-54.51838124 54.03649496 -52.24739714 51.85592731 -49.83764648 49.49707031 C-49.30105408 48.96003983 -48.76446167 48.42300934 -48.21160889 47.8697052 C-46.43845615 46.09864037 -44.65491874 44.33843482 -42.87109375 42.578125 C-41.63875659 41.35138377 -40.40708067 40.12397796 -39.17604065 38.89593506 C-35.93574918 35.66709252 -32.6865494 32.44736066 -29.4354248 29.22943115 C-26.11884989 25.94355589 -22.81076166 22.64916121 -19.50195312 19.35546875 C-13.0095892 12.89526985 -6.50778426 6.4446621 0 0 Z " fill="#001035" transform="translate(199,314)"/>
<path d="M0 0 C3.61692773 1.52897576 5.9203522 3.67815633 8.67675781 6.44970703 C10.05773651 7.83091232 10.05773651 7.83091232 11.46661377 9.24002075 C12.4622253 10.24584465 13.45772648 11.2517778 14.453125 12.2578125 C15.47830193 13.28672149 16.50392275 14.31518837 17.52996826 15.3432312 C20.22393164 18.04481581 22.91183368 20.75235341 25.59851074 23.46118164 C28.34328304 26.22644489 31.09375472 28.98602633 33.84375 31.74609375 C39.23475573 37.15852274 44.61936964 42.57725438 50 48 C39.40229425 69.90173687 4.5252795 83.44176393 -17 91 C-75.61896232 111.32439501 -75.61896232 111.32439501 -95.3984375 102.48046875 C-96.25695312 101.99191406 -97.11546875 101.50335938 -98 101 C-98 97 -98 97 -96.42138672 94.93363953 C-95.31174561 93.83279778 -95.31174561 93.83279778 -94.1796875 92.7097168 C-93.3446167 91.87172043 -92.5095459 91.03372406 -91.64916992 90.17033386 C-90.73369385 89.27236588 -89.81821777 88.37439789 -88.875 87.44921875 C-87.92929271 86.50843969 -86.98439905 85.56684209 -86.0402832 84.62446594 C-84.05543115 82.64726108 -82.06430045 80.67669513 -80.06787109 78.71118164 C-77.52899791 76.21158552 -75.0007379 73.70161182 -72.4765625 71.18718243 C-70.05034112 68.77103081 -67.61927725 66.35977667 -65.1875 63.94921875 C-64.28821777 63.05732346 -63.38893555 62.16542816 -62.46240234 61.24650574 C-58.74163607 57.58125216 -55.02031424 53.9638756 -51.0546875 50.56347656 C-45.75079201 45.9957484 -40.87042886 40.9944182 -35.9375 36.03515625 C-34.8954026 34.99118934 -33.85308091 33.94744628 -32.81054688 32.90391541 C-30.09255554 30.18214078 -27.3775831 27.45737477 -24.66326904 24.73193359 C-21.88282982 21.94118927 -19.09948971 19.15334129 -16.31640625 16.36523438 C-10.87479158 10.91295642 -5.43636897 5.45750891 0 0 Z " fill="#FCBF01" transform="translate(141,372)"/>
<path d="M0 0 C3 1 3 1 4 3 C4.28310617 8.3468461 4.24595745 13.70865371 4.25 19.0625 C4.25067474 19.85553528 4.25134949 20.64857056 4.25204468 21.46563721 C4.23309598 35.50644682 3.21796699 49.12310021 1 63 C0.82839355 64.11971191 0.65678711 65.23942383 0.47998047 66.39306641 C-3.16248433 89.94376601 -8.28540444 113.13472621 -15 136 C-19.01571255 134.39140496 -21.70479614 131.56359635 -24.68652344 128.54052734 C-25.24306107 127.98428177 -25.79959869 127.42803619 -26.3730011 126.85493469 C-28.20657442 125.01997095 -30.03296672 123.17803069 -31.859375 121.3359375 C-33.13117525 120.06040611 -34.40341853 118.78531633 -35.67608643 117.51065063 C-39.02106258 114.15804605 -42.35998851 110.79947827 -45.69769287 107.43963623 C-49.10602831 104.01082544 -52.52004745 100.58768427 -55.93359375 97.1640625 C-62.62797297 90.44824728 -69.31597466 83.72611906 -76 77 C-71.83174662 72.0278738 -67.49244504 67.35279555 -62.89306641 62.77954102 C-62.20944031 62.09576889 -61.52581421 61.41199677 -60.82147217 60.70750427 C-58.583867 58.47059017 -56.34275155 56.23722911 -54.1015625 54.00390625 C-52.54050184 52.44471263 -50.97966327 50.88529661 -49.41903687 49.32566833 C-45.32779371 45.2382278 -41.23355542 41.1538004 -37.13867188 37.07000732 C-32.9539051 32.8955033 -28.77199759 28.71813708 -24.58984375 24.54101562 C-16.39601449 16.35788389 -8.19901608 8.17793461 0 0 Z " fill="#FE193D" transform="translate(508,5)"/>
<path d="M0 0 C3.91544725 1.30514908 5.22794971 3.71731818 7.4375 7 C8.03908936 7.88631104 8.03908936 7.88631104 8.65283203 8.79052734 C11.67943928 13.33847784 14.18490912 17.82974112 16 23 C16.29648437 23.76828125 16.59296875 24.5365625 16.8984375 25.328125 C22.23389 41.28553338 19.12474286 58.14169934 12.4375 73.125 C4.07653886 88.93904013 -10.86064975 99.87027052 -27.625 105.3125 C-38.10062762 108.13417941 -49.60328392 108.34453183 -60 105 C-60.845625 104.74347656 -61.69125 104.48695313 -62.5625 104.22265625 C-72.85662619 100.81565142 -81.02057948 96.37530462 -88 88 C-81.07 81.07 -74.14 74.14 -67 67 C-62 69 -62 69 -58.9375 71.0625 C-52.42469758 75.35817819 -44.52839624 74.53719443 -37 74 C-29.74849075 72.39285643 -23.87067597 68.57934245 -19 63 C-13.5387437 54.38862775 -12.82768001 44.96940916 -14 35 C-15.2131669 31.28807141 -16.87963831 28.25764659 -19 25 C-19.99 23.02 -19.99 23.02 -21 21 C-14.07 14.07 -7.14 7.14 0 0 Z " fill="#011136" transform="translate(373,140)"/>
<path d="M0 0 C6.25978435 3.97973045 10.70269861 10.93164224 12.89453125 17.9375 C13.91439095 29.74889838 13.26219684 38.68204748 5.70703125 48.1875 C0.21006248 54.12280465 -6.46318554 57.6622449 -14.53125 58.140625 C-27.61594907 58.29843042 -27.61594907 58.29843042 -33.10546875 54.9375 C-33.74613281 54.54691406 -34.38679688 54.15632813 -35.046875 53.75390625 C-41.09293709 49.70407718 -46.72997684 43.71594299 -48.78125 36.58984375 C-49.79923548 28.26198664 -50.50740368 19.32646221 -46.10546875 11.9375 C-45.27015625 10.4525 -45.27015625 10.4525 -44.41796875 8.9375 C-32.62723546 -6.35858643 -16.88939901 -8.52303623 0 0 Z " fill="#1CACB4" transform="translate(347.10546875,157.0625)"/>
<path d="M0 0 C2.31058353 1.52170893 4.03364984 3.03364984 6 5 C1.31179066 10.63568661 -3.69985408 15.83103966 -8.8984375 20.99609375 C-9.73339752 21.82963882 -10.56835754 22.6631839 -11.42861938 23.52198792 C-14.07505848 26.16286524 -16.72496759 28.80022896 -19.375 31.4375 C-21.17861643 33.23609649 -22.98200425 35.03492227 -24.78515625 36.83398438 C-29.18746261 41.22531248 -33.59261714 45.61376729 -38 50 C-45.33549569 42.80833756 -47.12576202 37.83322057 -47.25 27.625 C-47.25271003 22.00508509 -46.90290912 17.8727403 -44 13 C-43.1646875 11.515 -43.1646875 11.515 -42.3125 10 C-31.15419204 -4.47564276 -16.4546273 -7.39985395 0 0 Z " fill="#06CAAA" transform="translate(345,156)"/>
</svg>
